<?xml version="1.0" encoding="iso-8859-1"?>
<!-- Generator: Adobe Illustrator 19.0.0, SVG Export Plug-In . SVG Version: 6.00 Build 0)  -->
<svg version="1.1" id="Layer_1" xmlns="http://www.w3.org/2000/svg" xmlns:xlink="http://www.w3.org/1999/xlink" x="0px" y="0px"
	 viewBox="0 0 480 480" style="enable-background:new 0 0 480 480;" xml:space="preserve">
<g>
	<g>
		<path d="M408,0H72C49.944,0,32,17.944,32,40v104v296c0,22.056,17.944,40,40,40h336c22.056,0,40-17.944,40-40V144V40
			C448,17.944,430.056,0,408,0z M432,440c0,13.232-10.768,24-24,24H72c-13.232,0-24-10.768-24-24V152h384V440z M432,136H48V40
			c0-13.232,10.768-24,24-24h336c13.232,0,24,10.768,24,24V136z"/>
	</g>
</g>
<g>
	<g>
		<path d="M131.664,43.032c-18.192,0-33,14.808-33,33c0,18.2,14.808,33,33,33c18.2,0,33-14.808,33-33
			C164.672,57.832,149.864,43.032,131.664,43.032z M131.664,93.032c-9.376,0-17-7.632-17-17s7.624-17,17-17c9.376,0,17,7.624,17,17
			C148.664,85.408,141.04,93.032,131.664,93.032z"/>
	</g>
</g>
<g>
	<g>
		<path d="M347.672,43.032c-18.2,0-33.008,14.808-33.008,33c0,18.2,14.808,33,33.008,33c18.192,0,33-14.808,33-33
			C380.672,57.832,365.864,43.032,347.672,43.032z M347.672,93.032c-9.376,0-17.008-7.632-17.008-17s7.632-17,17.008-17
			c9.376,0,17,7.624,17,17C364.672,85.408,357.048,93.032,347.672,93.032z"/>
	</g>
</g>
<g>
	<g>
		<path d="M408,360h-8v-8c0-4.416-3.576-8-8-8s-8,3.584-8,8v8h-8c-4.424,0-8,3.584-8,8c0,4.416,3.576,8,8,8h8v8c0,4.416,3.576,8,8,8
			s8-3.584,8-8v-8h8c4.424,0,8-3.584,8-8C416,363.584,412.424,360,408,360z"/>
	</g>
</g>
<g>
	<g>
		<path d="M120,200h-8v-8c0-4.416-3.584-8-8-8s-8,3.584-8,8v8h-8c-4.416,0-8,3.584-8,8s3.584,8,8,8h8v8c0,4.416,3.584,8,8,8
			s8-3.584,8-8v-8h8c4.416,0,8-3.584,8-8S124.416,200,120,200z"/>
	</g>
</g>
<g>
	<g>
		<path d="M144.904,297.576c-4.368-1.088-8.856,1.872-9.464,6.728c-0.888,4.816,2.68,8.96,7.112,9.192
			c4.464,0.232,8.072-2.864,8.84-6.816C151.864,302.68,149.176,298.648,144.904,297.576z"/>
	</g>
</g>
<g>
	<g>
		<path d="M157.152,268.192c-3.664-2.376-9.016-1.088-11.176,3.288c-2.104,4.408-0.528,9.288,3.728,10.984
			c4.024,1.6,8.896,0.04,10.608-3.592C162.064,275.256,160.976,270.648,157.152,268.192z"/>
	</g>
</g>
<g>
	<g>
		<path d="M178.112,244.208c-2.808-3.528-7.976-3.672-11.592-0.392c-3.52,3.376-3.264,8.816,0.072,11.648
			c3.448,2.936,8.24,2.712,11.144-0.064C180.728,252.712,180.848,247.648,178.112,244.208z"/>
	</g>
</g>
<g>
	<g>
		<path d="M205.744,228.36c-1.488-4.144-6.52-6.4-10.864-4.136c-4.464,2.008-6,7.144-3.68,11.016
			c2.256,3.768,6.904,5.184,10.584,3.552C205.344,236.896,207.264,232.592,205.744,228.36z"/>
	</g>
</g>
<g>
	<g>
		<path d="M285.56,224.224c-4.344-2.264-9.376-0.008-10.864,4.136c-1.52,4.232,0.408,8.536,3.96,10.432
			c3.68,1.632,8.328,0.216,10.592-3.552C291.568,231.376,290.032,226.232,285.56,224.224z"/>
	</g>
</g>
<g>
	<g>
		<path d="M313.92,243.816c-3.616-3.28-8.784-3.136-11.592,0.392c-2.736,3.44-2.616,8.504,0.376,11.192
			c2.912,2.776,7.704,3,11.144,0.064C317.192,252.624,317.44,247.192,313.92,243.816z"/>
	</g>
</g>
<g>
	<g>
		<path d="M334.472,271.48c-2.16-4.384-7.512-5.664-11.176-3.288c-3.816,2.456-4.912,7.072-3.16,10.68
			c1.712,3.632,6.584,5.184,10.608,3.592C334.992,280.768,336.576,275.888,334.472,271.48z"/>
	</g>
</g>
<g>
	<g>
		<path d="M345.008,304.296c-0.608-4.856-5.088-7.816-9.464-6.728c-4.272,1.072-6.96,5.104-6.488,9.104
			c0.76,3.96,4.376,7.048,8.84,6.816C342.328,313.264,345.896,309.112,345.008,304.296z"/>
	</g>
</g>
<g>
	<g>
		<path d="M336,424h-16v-56c0-10.416-6.712-19.216-16-22.528V320c0-13.232-10.768-24-24-24h-16v-40c0-4.416-3.576-8-8-8h-32
			c-4.416,0-8,3.584-8,8v40h-16c-13.232,0-24,10.768-24,24v25.472c-9.288,3.312-16,12.112-16,22.528v56h-16c-4.416,0-8,3.584-8,8
			c0,4.416,3.584,8,8,8h24h144h24c4.424,0,8-3.584,8-8C344,427.584,340.424,424,336,424z M232,264h16v32h-16V264z M192,320
			c0-4.408,3.592-8,8-8h24h32h24c4.416,0,8,3.592,8,8v24h-96V320z M304,424H176v-56c0-4.408,3.592-8,8-8h112c4.416,0,8,3.592,8,8
			V424z"/>
	</g>
</g>
<g>
	<g>
		<path d="M244.72,177.384c-2.712-1.832-6.272-1.832-8.984,0c-2.104,1.424-20.512,14.424-20.512,32.368
			c0,16.68,9.112,26.248,25,26.248s25-9.568,25-26.248C265.224,191.808,246.816,178.8,244.72,177.384z M248.592,215.248
			c-2.104,0.8-3.704,2.392-4.504,4.4c-1.104,0.264-2.384,0.36-3.864,0.36c-1.48,0-2.76-0.096-3.864-0.36
			c-0.792-2.008-2.4-3.6-4.504-4.4c-0.416-1.408-0.632-3.184-0.632-5.496c0-5.632,4.88-11.568,9.016-15.44
			c4.128,3.856,8.984,9.76,8.984,15.44C249.224,212.064,249.008,213.84,248.592,215.248z"/>
	</g>
</g>
<g>
	<g>
		<path d="M280,392h-8v-8c0-4.416-3.576-8-8-8s-8,3.584-8,8v16c0,4.416,3.576,8,8,8h16c4.424,0,8-3.584,8-8
			C288,395.584,284.424,392,280,392z"/>
	</g>
</g>
<g>
	<g>
		<path d="M216,376c-4.416,0-8,3.584-8,8v8h-8c-4.416,0-8,3.584-8,8c0,4.416,3.584,8,8,8h16c4.416,0,8-3.584,8-8v-16
			C224,379.584,220.416,376,216,376z"/>
	</g>
</g>
<g>
</g>
<g>
</g>
<g>
</g>
<g>
</g>
<g>
</g>
<g>
</g>
<g>
</g>
<g>
</g>
<g>
</g>
<g>
</g>
<g>
</g>
<g>
</g>
<g>
</g>
<g>
</g>
<g>
</g>
</svg>
