<?xml version="1.0" encoding="iso-8859-1"?>
<!-- Generator: Adobe Illustrator 18.0.0, SVG Export Plug-In . SVG Version: 6.00 Build 0)  -->
<!DOCTYPE svg PUBLIC "-//W3C//DTD SVG 1.1//EN" "http://www.w3.org/Graphics/SVG/1.1/DTD/svg11.dtd">
<svg version="1.1" id="Capa_1" xmlns="http://www.w3.org/2000/svg" xmlns:xlink="http://www.w3.org/1999/xlink" x="0px" y="0px"
	 viewBox="0 0 411.741 411.741" style="enable-background:new 0 0 411.741 411.741;" xml:space="preserve">
<g>
	<path d="M386.582,110.684c0.166-28.394-10.553-56.84-32.169-78.456C333.629,11.446,305.997,0,276.606,0
		c-26.171,0-50.948,9.075-70.735,25.736C186.082,9.075,161.306,0,135.135,0c-29.392,0-57.023,11.446-77.806,32.229
		c-20.783,20.783-32.229,48.415-32.229,77.807c0,0.478,0.002,79.496,0.002,79.496c0,29.383,11.445,57.016,32.229,77.811
		l141.47,141.47c1.875,1.875,4.419,2.929,7.071,2.929s5.196-1.053,7.071-2.929l141.471-141.472
		c20.782-20.793,32.228-48.426,32.228-77.809C386.642,189.531,386.62,111.038,386.582,110.684z M71.471,46.371
		C88.475,29.365,111.085,20,135.135,20s46.659,9.365,63.665,26.371c1.875,1.875,4.419,2.929,7.071,2.929s5.196-1.053,7.071-2.929
		C229.947,29.365,252.557,20,276.606,20s46.659,9.365,63.665,26.371c35.105,35.105,35.105,92.224,0,127.329l-134.4,134.4
		l-134.4-134.4c-17.006-17.005-26.371-39.615-26.371-63.665S54.465,63.376,71.471,46.371z M45.102,189.531v-16.189
		c3.618,5.123,7.7,9.974,12.226,14.499L195.87,326.384v51.214L71.474,253.202C54.468,236.187,45.102,213.575,45.102,189.531z
		 M340.27,253.2l-124.4,124.4v-51.216l138.542-138.542c4.563-4.563,8.636-9.434,12.229-14.541v16.231
		C366.642,213.575,357.276,236.187,340.27,253.2z"/>
	<path d="M86.948,163.29h34.686c5.523,0,10-4.477,10-10s-4.477-10-10-10H99.935l10.903-41.238
		c1.412-5.339-1.772-10.812-7.112-12.224c-5.343-1.413-10.812,1.772-12.224,7.112L77.28,150.734c-0.793,3-0.148,6.198,1.745,8.657
		S83.845,163.29,86.948,163.29z"/>
	<path d="M171.878,163.29c14.53,0,26.296-9.769,26.787-22.239l1.126-28.615c0.216-5.481-1.874-10.796-5.882-14.966
		c-4.873-5.068-12.092-7.975-19.806-7.975c-13.255,0-24.249,8.566-25.572,19.925l-3.32,28.512
		c-0.687,5.902,1.217,11.716,5.361,16.371C155.657,160.015,163.422,163.29,171.878,163.29z M168.388,111.777
		c0.208-0.628,2.28-2.281,5.715-2.281c3.379,0,5.397,1.559,5.7,2.238l-1.123,28.531c-0.03,0.753-2.489,3.025-6.802,3.025
		c-3.198,0-5.43-1.231-6.369-2.286c-0.271-0.305-0.449-0.617-0.433-0.759L168.388,111.777z"/>
	<path d="M229.553,156.656c1.429,3.999,5.214,6.635,9.412,6.635c0.227,0,0.455-0.008,0.684-0.023
		c4.466-0.304,8.186-3.539,9.106-7.919l11.31-53.794c1.136-5.405-2.324-10.707-7.729-11.844c-5.407-1.134-10.708,2.324-11.844,7.729
		l-4.025,19.144l-7.31-20.452c-1.859-5.2-7.582-7.911-12.782-6.051c-5.201,1.859-7.91,7.582-6.051,12.782L229.553,156.656z"/>
	<path d="M280.278,155.131c0.886,4.731,5.016,8.159,9.829,8.159h34.686c5.523,0,10-4.477,10-10s-4.477-10-10-10h-26.384
		l-1.643-8.774h2.674c5.523,0,10-4.477,10-10s-4.477-10-10-10h-6.42l-0.94-5.02h18.49c5.523,0,10-4.477,10-10s-4.477-10-10-10
		h-30.537c-2.975,0-5.794,1.324-7.694,3.613c-1.9,2.289-2.682,5.304-2.135,8.228L280.278,155.131z"/>
</g>
<g>
</g>
<g>
</g>
<g>
</g>
<g>
</g>
<g>
</g>
<g>
</g>
<g>
</g>
<g>
</g>
<g>
</g>
<g>
</g>
<g>
</g>
<g>
</g>
<g>
</g>
<g>
</g>
<g>
</g>
</svg>
